<?xml version="1.0" encoding="UTF-8" standalone="no"?>
<svg
   xmlns:dc="http://purl.org/dc/elements/1.1/"
   xmlns:cc="http://creativecommons.org/ns#"
   xmlns:rdf="http://www.w3.org/1999/02/22-rdf-syntax-ns#"
   xmlns:svg="http://www.w3.org/2000/svg"
   xmlns="http://www.w3.org/2000/svg"
   xmlns:sodipodi="http://sodipodi.sourceforge.net/DTD/sodipodi-0.dtd"
   xmlns:inkscape="http://www.inkscape.org/namespaces/inkscape"
   enable-background="new 0 0 56.693 56.693"
   height="12"
   id="Layer_1"
   version="1.1"
   viewBox="0 0 14.37 12"
   width="14.37"
   xml:space="preserve"
   inkscape:version="0.91 r13725"
   sodipodi:docname="1490531078_11-linkedin.svg"><metadata
     id="metadata13"><rdf:RDF><cc:Work
         rdf:about=""><dc:format>image/svg+xml</dc:format><dc:type
           rdf:resource="http://purl.org/dc/dcmitype/StillImage" /><dc:title></dc:title></cc:Work></rdf:RDF></metadata><defs
     id="defs11" /><sodipodi:namedview
     pagecolor="#ffffff"
     bordercolor="#666666"
     borderopacity="1"
     objecttolerance="10"
     gridtolerance="10"
     guidetolerance="10"
     inkscape:pageopacity="0"
     inkscape:pageshadow="2"
     inkscape:window-width="1033"
     inkscape:window-height="725"
     id="namedview9"
     showgrid="false"
     fit-margin-top="0"
     fit-margin-left="0"
     fit-margin-right="0"
     fit-margin-bottom="0"
     inkscape:zoom="4.1627714"
     inkscape:cx="-23.192416"
     inkscape:cy="30.652867"
     inkscape:window-x="0"
     inkscape:window-y="0"
     inkscape:window-maximized="0"
     inkscape:current-layer="Layer_1" /><g
     id="g3"
     transform="matrix(0.29074355,0,0,0.24126422,-1.015858,-1.1259801)"
     style="fill:#808080"><path
       d="m 30.071,27.101 0,-0.077 c -0.016,0.026 -0.033,0.052 -0.05,0.077 l 0.05,0 z"
       id="path5"
       inkscape:connector-curvature="0"
       style="fill:#808080" /><path
       d="m 49.265,4.667 -42.12,0 c -2.016,0 -3.651,1.596 -3.651,3.563 l 0,42.613 c 0,1.966 1.635,3.562 3.651,3.562 l 42.12,0 c 2.019,0 3.654,-1.597 3.654,-3.562 l 0,-42.613 c 0,-1.968 -1.636,-3.563 -3.654,-3.563 z m -30.79,41.637 -7.465,0 0,-22.459 7.465,0 0,22.459 z m -3.732,-25.527 -0.05,0 c -2.504,0 -4.124,-1.725 -4.124,-3.88 0,-2.203 1.67,-3.88 4.223,-3.88 2.554,0 4.125,1.677 4.175,3.88 0,2.155 -1.622,3.88 -4.224,3.88 z m 30.651,25.527 -7.465,0 0,-12.018 c 0,-3.018 -1.08,-5.078 -3.781,-5.078 -2.062,0 -3.29,1.389 -3.831,2.731 -0.197,0.479 -0.245,1.149 -0.245,1.821 l 0,12.543 -7.465,0 c 0,0 0.098,-20.354 0,-22.459 l 7.465,0 0,3.179 c 0.992,-1.53 2.766,-3.709 6.729,-3.709 4.911,0 8.594,3.211 8.594,10.11 l 0,12.88 z"
       id="path7"
       inkscape:connector-curvature="0"
       style="fill:#808080" /></g></svg>