<?xml version="1.0" encoding="UTF-8" standalone="no"?>
<svg
   xmlns:dc="http://purl.org/dc/elements/1.1/"
   xmlns:cc="http://creativecommons.org/ns#"
   xmlns:rdf="http://www.w3.org/1999/02/22-rdf-syntax-ns#"
   xmlns:svg="http://www.w3.org/2000/svg"
   xmlns="http://www.w3.org/2000/svg"
   xmlns:sodipodi="http://sodipodi.sourceforge.net/DTD/sodipodi-0.dtd"
   xmlns:inkscape="http://www.inkscape.org/namespaces/inkscape"
   width="15.521"
   height="15.137"
   viewBox="0 0 15.521 15.137"
   id="svg2"
   version="1.1"
   inkscape:version="0.91 r13725"
   sodipodi:docname="icon-gscholar.svg">
  <metadata
     id="metadata10">
    <rdf:RDF>
      <cc:Work
         rdf:about="">
        <dc:format>image/svg+xml</dc:format>
        <dc:type
           rdf:resource="http://purl.org/dc/dcmitype/StillImage" />
        <dc:title></dc:title>
      </cc:Work>
    </rdf:RDF>
  </metadata>
  <defs
     id="defs8" />
  <sodipodi:namedview
     pagecolor="#ffffff"
     bordercolor="#666666"
     borderopacity="1"
     objecttolerance="10"
     gridtolerance="10"
     guidetolerance="10"
     inkscape:pageopacity="0"
     inkscape:pageshadow="2"
     inkscape:window-width="770"
     inkscape:window-height="636"
     id="namedview6"
     showgrid="false"
     inkscape:zoom="9.0769231"
     inkscape:cx="12.761"
     inkscape:cy="12.568"
     inkscape:window-x="517"
     inkscape:window-y="224"
     inkscape:window-maximized="0"
     inkscape:current-layer="svg2"
     fit-margin-top="0"
     fit-margin-left="0"
     fit-margin-right="0"
     fit-margin-bottom="0" />
  <path
     d="M 7.7605,0 C 3.4743162,0 0,3.388359 0,7.5685 c 0,4.180141 3.4743162,7.5685 7.7605,7.5685 4.286184,0 7.7605,-3.388359 7.7605,-7.5685 C 15.521,3.388359 12.046684,0 7.7605,0 Z M 5.1674483,1.837544 C 5.9200676,1.800344 6.837299,2.216552 7.7605,2.983736 8.9914347,1.961406 10.206251,1.547904 11.043788,2.01948 c 0.836941,0.471575 1.075427,1.705095 0.783512,3.256638 1.524043,0.528048 2.499777,1.34923 2.499777,2.292382 0,0.943152 -0.975734,1.763752 -2.499777,2.292382 0.292512,1.551543 0.05403,2.78448 -0.783512,3.256638 C 10.206251,13.589678 8.9914347,13.176176 7.7605,12.153264 6.5295653,13.175594 5.3147486,13.588514 4.4772115,13.11752 3.6396745,12.645362 3.4011884,11.413007 3.6936995,9.860882 2.1696567,9.332834 1.1939231,8.511652 1.1939231,7.5685 c 0,-0.943152 0.9757336,-1.763752 2.4997764,-2.292382 C 3.4011884,3.725157 3.6396745,2.491055 4.4772115,2.01948 4.6864466,1.901586 4.9165752,1.849943 5.1674483,1.837544 Z m 0.093275,0.563999 C 5.0772509,2.403743 4.9146348,2.450593 4.775692,2.528898 4.2193242,2.841535 4.0187451,3.790072 4.253351,5.094183 4.8144948,4.93932 5.4369765,4.823027 6.1002007,4.748506 6.4983741,4.225697 6.9129639,3.762272 7.3314339,3.365799 6.5501605,2.727862 5.8111407,2.394912 5.2607236,2.401543 Z m 4.9995527,0 C 9.7096072,2.394943 8.9708392,2.727862 8.1895658,3.365799 8.6074389,3.762272 9.0232226,4.225697 9.420799,4.748506 10.084024,4.823026 10.706505,4.93932 11.267649,5.094183 11.502255,3.790072 11.301079,2.841535 10.745308,2.528898 10.606216,2.450588 10.443833,2.403754 10.260276,2.401543 Z M 7.7605,3.747863 C 7.4745554,4.018 7.1895063,4.328745 6.9023678,4.675732 7.1847306,4.660012 7.4667949,4.657542 7.7605,4.657542 c 0.2937051,0 0.5763664,0.0025 0.8581322,0.01819 C 8.3314937,4.328163 8.0464446,4.018 7.7605,3.747863 Z m 0,1.491868 c -0.4692118,0 -0.9169329,0.01616 -1.3431635,0.05458 C 6.1701945,5.634894 5.9249925,6.007642 5.6897897,6.404115 5.4551838,6.800588 5.2526646,7.189493 5.0741731,7.5685 c 0.1784915,0.379007 0.3816076,0.767912 0.6156166,1.164385 0.2340089,0.396473 0.4804048,0.769803 0.7275468,1.109804 0.4262306,0.03901 0.8733548,0.05458 1.3431635,0.05458 0.4692118,0 0.9175299,-0.01557 1.3431635,-0.05458 C 9.3508055,9.502106 9.5966045,9.129358 9.83121,8.732885 10.065816,8.336994 10.268335,7.947507 10.446827,7.5685 10.268335,7.189493 10.065219,6.800588 9.83121,6.404115 9.5960075,6.007642 9.3514025,5.634894 9.1036635,5.294311 8.6780299,5.255887 8.2291148,5.239731 7.7605,5.239731 Z M 5.6338245,5.403472 C 5.1813277,5.472752 4.7491275,5.55164 4.3652813,5.658181 4.4619893,6.035442 4.6109309,6.442103 4.7756923,6.858953 4.9034421,6.612104 5.0205958,6.361615 5.1674483,6.113019 5.3143009,5.864423 5.4786145,5.634021 5.6338245,5.403472 Z m 4.2533505,0 c 0.155807,0.230549 0.319524,0.460951 0.466377,0.709547 0.146852,0.248014 0.264603,0.499085 0.391756,0.745934 C 10.910069,6.442103 11.059011,6.03486 11.155719,5.658181 10.772469,5.55164 10.339672,5.472753 9.887175,5.403472 Z M 3.8056298,5.840117 C 2.529923,6.294227 1.7908846,6.942061 1.7908846,7.5685 c 0,0.626439 0.7390384,1.273691 2.0147452,1.728383 C 3.9483036,8.744965 4.1561955,8.166411 4.4212464,7.5685 4.1555985,6.971171 3.9483036,6.391453 3.8056298,5.840117 Z m 7.9097402,0 c -0.142674,0.551336 -0.350565,1.130471 -0.615616,1.728383 0.265051,0.597911 0.472345,1.177047 0.615616,1.728383 1.275707,-0.45411 2.014745,-1.101944 2.014745,-1.728383 0,-0.626439 -0.739038,-1.274273 -2.014745,-1.728383 z M 7.7605,6.89534 c 0.3850402,0 0.6902368,0.297646 0.6902368,0.67316 0,0.375514 -0.3051966,0.67316 -0.6902368,0.67316 -0.3850402,0 -0.6902368,-0.298228 -0.6902368,-0.67316 0,-0.374932 0.3051966,-0.67316 0.6902368,-0.67316 z M 4.7756923,8.278047 C 4.6109309,8.694897 4.462586,9.101558 4.3652813,9.478819 4.7491275,9.58536 5.1819246,9.664247 5.6338245,9.733528 5.4786145,9.502979 5.3143009,9.271995 5.1674483,9.023981 5.0205958,8.775385 4.9034421,8.524314 4.7756923,8.278047 Z m 5.9696157,0 C 10.618155,8.524896 10.500404,8.776549 10.353552,9.023981 10.206699,9.272577 10.042982,9.502397 9.887175,9.733528 10.339672,9.664828 10.773066,9.58536 11.155719,9.478819 11.059609,9.10214 10.910069,8.694314 10.745308,8.278047 Z m -6.491957,1.76477 c -0.2346059,1.304111 -0.034027,2.252648 0.5223413,2.565285 0.5557712,0.31322 1.5140437,0.01368 2.5557416,-0.836901 C 6.9135608,11.374146 6.4977771,10.911303 6.1002007,10.388494 5.4369765,10.313391 4.8144948,10.19768 4.253351,10.042817 Z m 7.014298,0 c -0.561144,0.154863 -1.183625,0.270574 -1.8468497,0.345677 -0.3981734,0.522809 -0.8127632,0.986234 -1.2312332,1.382707 1.0411009,0.850583 1.9993739,1.150121 2.5557419,0.836901 0.555771,-0.312637 0.756947,-1.260592 0.522341,-2.565285 z M 6.9023678,10.461268 C 7.1895063,10.808837 7.4745554,11.119 7.7605,11.389137 8.0464446,11.119 8.3314937,10.808837 8.6186322,10.461268 c -0.2817658,0.01572 -0.5644271,0.01819 -0.8581322,0.01819 -0.294302,0 -0.5757694,-0.0031 -0.8581322,-0.01819 z"
     id="path4"
     style="fill:#808080"
     inkscape:connector-curvature="0" />
</svg>
